<?xml version="1.0" encoding="UTF-8" standalone="no"?>
<svg
   viewBox="0 0 150 150"
   version="1.1"
   id="svg45"
   sodipodi:docname="flag.svg"
   inkscape:version="1.4 (e7c3feb100, 2024-10-09)"
   xmlns:inkscape="http://www.inkscape.org/namespaces/inkscape"
   xmlns:sodipodi="http://sodipodi.sourceforge.net/DTD/sodipodi-0.dtd"
   xmlns="http://www.w3.org/2000/svg"
   xmlns:svg="http://www.w3.org/2000/svg">
  <sodipodi:namedview
     id="namedview45"
     pagecolor="#ffffff"
     bordercolor="#000000"
     borderopacity="0.25"
     inkscape:showpageshadow="2"
     inkscape:pageopacity="0.0"
     inkscape:pagecheckerboard="0"
     inkscape:deskcolor="#d1d1d1"
     inkscape:zoom="4.9066667"
     inkscape:cx="94.157609"
     inkscape:cy="63.485055"
     inkscape:window-width="1920"
     inkscape:window-height="1131"
     inkscape:window-x="0"
     inkscape:window-y="32"
     inkscape:window-maximized="1"
     inkscape:current-layer="svg45" />
  <defs
     id="defs7">
    <style
       id="style1">.cls-1{fill:#fff;}.cls-2{isolation:isolate;}.cls-3{clip-path:url(#clippath-6);}.cls-4{stroke-width:1.15px;}.cls-4,.cls-5,.cls-6,.cls-7,.cls-8{fill:none;}.cls-4,.cls-5,.cls-7,.cls-8{stroke:#fff;}.cls-4,.cls-7,.cls-8{stroke-miterlimit:10;}.cls-9{clip-path:url(#clippath-4);}.cls-5{stroke-linejoin:round;}.cls-5,.cls-7{stroke-width:.96px;}.cls-10{clip-path:url(#clippath);}.cls-11{clip-path:url(#clippath-3);}.cls-12{fill:#ed1c24;}.cls-13{filter:url(#luminosity-noclip-2);}.cls-14{clip-path:url(#clippath-5);}.cls-8{stroke-width:2.77px;}.cls-15{fill:#231f20;}</style>
    <clipPath
       id="clippath">
      <rect
         class="cls-6"
         x="15.53"
         y="19.53"
         width="116.93"
         height="116.93"
         id="rect1" />
    </clipPath>
    <clipPath
       id="clippath-1">
      <rect
         class="cls-6"
         x="15.53"
         y="19.53"
         width="116.93"
         height="116.93"
         id="rect2" />
    </clipPath>
    <filter
       id="luminosity-noclip-2"
       x="13.77"
       y="12.08"
       width="128.49"
       height="160.39"
       color-interpolation-filters="sRGB"
       filterUnits="userSpaceOnUse">
      <feFlood
         flood-color="#fff"
         result="bg"
         id="feFlood2" />
      <feBlend
         in="SourceGraphic"
         in2="bg"
         id="feBlend2" />
    </filter>
    <mask
       id="mask"
       x="13.77"
       y="12.08"
       width="128.49"
       height="160.39"
       maskUnits="userSpaceOnUse">
      <g
         class="cls-13"
         id="g4">
        <g
           class="cls-2"
           id="g3">
          <path
             class="cls-15"
             d="M88.98,45.23c-13.94-6.4-26.1-9.71-27.16-7.38L31.8,103.19c-1.07,2.32,9.37,9.39,23.3,15.79,13.94,6.4,26.1,9.71,27.17,7.38l30.01-65.34c1.07-2.32-9.36-9.39-23.3-15.79m-51.64,57.74s.02-.05,.03-.07c0-.02,.02-.03,.03-.04-.02,.04-.04,.08-.06,.11"
             id="path2" />
          <path
             class="cls-15"
             d="M15.53,163.41h116.93V12.08H15.53V163.41Zm58.99-3.48c-31.06,0-56.24-11.08-56.24-72.34C18.29,15.26,43.47,15.26,74.53,15.26s56.32,3.84,56.24,72.34c-.07,57.15-25.18,72.34-56.24,72.34"
             id="path3" />
          <rect
             class="cls-15"
             x="47.09"
             y="143.75"
             width="58.73"
             height="10.88"
             id="rect3" />
        </g>
      </g>
    </mask>
    <clipPath
       id="clippath-3">
      <rect
         class="cls-6"
         x="15.53"
         y="19.53"
         width="116.93"
         height="116.93"
         id="rect4" />
    </clipPath>
    <clipPath
       id="clippath-4">
      <rect
         class="cls-6"
         x="15.53"
         y="19.53"
         width="116.93"
         height="116.93"
         id="rect5" />
    </clipPath>
    <clipPath
       id="clippath-5">
      <rect
         class="cls-6"
         x="15.53"
         y="19.53"
         width="116.93"
         height="116.93"
         id="rect6" />
    </clipPath>
    <clipPath
       id="clippath-6">
      <rect
         class="cls-6"
         x="15.53"
         y="19.53"
         width="116.93"
         height="116.93"
         id="rect7" />
    </clipPath>
  </defs>
  <polygon
     class="cls-12"
     points="78.35,71.76 74.79,71.53 75.8,57.12 76.46,50.69 81.59,48.55 85.37,47.38 91.29,47.78 89.56,51.3 97.4,52.13 98.83,54.14 89.79,56.79 83.4,57.84 85.14,53.42 82.54,54.42 79.23,56.12 "
     id="polygon19"
     transform="translate(-11.81,15.43)"
     style="fill:#ed1c24" />
  <polygon
     class="cls-7"
     points="78.35,71.76 74.79,71.53 75.8,57.12 76.46,50.69 81.59,48.55 85.37,47.38 91.29,47.78 89.56,51.3 97.4,52.13 98.83,54.14 89.79,56.79 83.4,57.84 85.14,53.42 82.54,54.42 79.23,56.12 "
     id="polygon20"
     transform="translate(-11.944655,15.417359)"
     style="fill:none;stroke:#ffffff;stroke-width:0.96px;stroke-miterlimit:10" />
</svg>
